<?xml version="1.0" encoding="UTF-8"?>
<svg id="Layer_1" xmlns="http://www.w3.org/2000/svg" version="1.1" viewBox="0 0 446.46 448.52">
  <!-- Generator: Adobe Illustrator 30.4.0, SVG Export Plug-In . SVG Version: 2.1.4 Build 226)  -->
  <defs>
    <style>
      .st0 {
        fill: #231f20;
      }
    </style>
  </defs>
  <path class="st0" d="M446.46,227.9c0-54.25-37.92-99.65-88.7-111.14.02-.94.04-1.87.04-2.81C357.8,51.02,306.78,0,243.85,0c-37.4,0-70.6,18.02-91.38,45.86-12.03-4.32-25-6.68-38.52-6.68C51.02,39.18,0,90.19,0,153.13c0,26.56,9.09,51,24.32,70.38-14.28,19.04-22.74,42.69-22.74,68.32,0,62.93,51.02,113.95,113.95,113.95,12.28,0,24.1-1.95,35.18-5.54,20.63,29.21,54.66,48.29,93.14,48.29,61.43,0,111.5-48.61,113.86-109.47,50.81-11.47,88.76-56.88,88.76-111.15Z"/>
</svg>