<svg xmlns="http://www.w3.org/2000/svg" width="600" height="600" viewBox="0 0 600 600">
  <path fill="#000" d="M 450.0,300.0 L 558.3,329.3 L 551.0,367.8 L 439.5,355.2 L 421.4,388.2 L 491.8,475.6 L 463.2,502.4 L 380.4,426.6 L 346.4,442.7 L 351.9,554.8 L 313.1,559.7 L 290.6,449.7 L 253.6,442.7 L 192.3,536.6 L 157.9,517.8 L 204.4,415.6 L 178.6,388.2 L 73.8,428.1 L 57.1,392.7 L 154.7,337.3 L 150.0,300.0 L 41.7,270.7 L 49.0,232.2 L 160.5,244.8 L 178.6,211.8 L 108.2,124.4 L 136.8,97.6 L 219.6,173.4 L 253.6,157.3 L 248.1,45.2 L 286.9,40.3 L 309.4,150.3 L 346.4,157.3 L 407.7,63.4 L 442.1,82.2 L 395.6,184.4 L 421.4,211.8 L 526.2,171.9 L 542.9,207.3 L 445.3,262.7 Z" />
  <circle cx="300" cy="300" r="70" fill="#fff" />
</svg>
