<?xml version="1.0" encoding="UTF-8"?>
<svg id="Layer_1" xmlns="http://www.w3.org/2000/svg" version="1.1" viewBox="0 0 103.25 103.34">
  <!-- Generator: Adobe Illustrator 30.4.0, SVG Export Plug-In . SVG Version: 2.1.4 Build 226)  -->
  <defs>
    <style>
      .st0 {
        fill: #be4b73;
      }

      .st1 {
        fill: #6a3b1a;
      }

      .st2 {
        fill: #f8a45a;
      }

      .st3 {
        fill: #de6926;
      }
    </style>
  </defs>
  <g id="Group_2">
    <g id="Graphic_68">
      <path class="st3" d="M20.05,50.74h-.15c-.89,0-3.43-.18-4.23-1.9-.36-1.11-1.02-2.1-1.9-2.88-3.14-3.16-8.23-3.18-11.39-.04s-3.18,8.23-.04,11.39,8.23,3.18,11.39.04c.8-.8,1.44-1.77,1.84-2.83.89-1.81,3.5-1.99,4.42-1.99h.05c-.08-.58-.08-1.19.01-1.79"/>
    </g>
    <g id="Graphic_65">
      <path class="st3" d="M54.48,87.66c-1.72-.99-1.9-3.43-1.9-4.33v-.16c-.64.09-1.28.09-1.9-.02v.26c0,.99-.27,3.69-2.15,4.42-.16.07-.31.16-.46.27-.77.4-1.46.91-2.06,1.53-3.14,3.14-3.14,8.21,0,11.35s8.21,3.14,11.35,0c3.14-3.14,3.14-8.21,0-11.35h0c-.76-.89-1.76-1.59-2.88-1.97"/>
    </g>
    <g id="Graphic_62">
      <path class="st3" d="M100.95,45.98c-3.12-3.14-8.19-3.14-11.33-.02-.8.8-1.42,1.75-1.82,2.81-.99,1.81-3.5,1.99-4.42,1.99h-.04c.09.6.09,1.2,0,1.81h.15c.89,0,3.43.18,4.23,1.9.36,1.11,1.02,2.1,1.9,2.88,3.1,3.14,8.16,3.16,11.3.05.02-.02.04-.04.05-.05,3.04-3.18,3.04-8.2-.02-11.37"/>
    </g>
    <g id="Graphic_59">
      <path class="st3" d="M46.11,2.38c-3.14,3.1-3.16,8.16-.05,11.3l.05.05c.89.89,1.9,1.44,2.88,1.9,1.72.99,1.9,3.43,1.9,4.33v.13c.64-.09,1.28-.09,1.9.02v-.24c0-.99.27-3.69,2.15-4.42.16-.07.31-.16.46-.27.77-.4,1.46-.91,2.06-1.53,3.14-3.1,3.16-8.16.05-11.3-.02-.02-.04-.04-.05-.05-3.16-3.08-8.29-3.08-11.35.08"/>
    </g>
    <g id="Graphic_56">
      <path class="st0" d="M34.67,34.63c-3.14,3.14-8.21,3.14-11.35,0-3.14-3.14-3.14-8.21,0-11.35,3.14-3.14,8.21-3.14,11.35,0h0c3.15,3.06,3.15,8.19,0,11.35"/>
    </g>
    <g id="Graphic_53">
      <path class="st0" d="M68.79,68.66c3.14-3.14,8.21-3.14,11.35,0s3.14,8.21,0,11.35-8.21,3.14-11.35,0h0c-3.14-3.1-3.16-8.16-.05-11.3.02-.01.03-.03.05-.05"/>
    </g>
    <g id="Graphic_50">
      <path class="st0" d="M69.19,22.88c3.14-3.14,8.21-3.14,11.35,0s3.14,8.21,0,11.35-8.21,3.14-11.35,0h0c-3.14-3.07-3.14-8.2,0-11.35"/>
    </g>
    <g id="Graphic_47">
      <path class="st0" d="M23.31,68.66c3.14-3.14,8.21-3.14,11.35,0s3.14,8.21,0,11.35-8.21,3.14-11.35,0h0c-3.14-3.1-3.16-8.16-.05-11.3.02-.01.04-.03.05-.05"/>
    </g>
    <g id="Graphic_44">
      <path class="st3" d="M30.45,55.96c-2.39,2.39-6.26,2.39-8.65,0s-2.39-6.26,0-8.65,6.26-2.39,8.65,0h0c2.41,2.34,2.41,6.26,0,8.65"/>
    </g>
    <g id="Graphic_41">
      <path class="st3" d="M56.15,30.5c-2.39,2.39-6.3,2.39-8.69,0s-2.39-6.3,0-8.69,6.3-2.39,8.69,0h0c2.39,2.39,2.41,6.26.02,8.67l-.02.02"/>
    </g>
    <g id="Graphic_38">
      <path class="st3" d="M81.64,56c-2.39,2.39-6.3,2.39-8.69,0s-2.39-6.3,0-8.69,6.3-2.39,8.69,0h0c2.41,2.34,2.41,6.26,0,8.69"/>
    </g>
    <g id="Graphic_35">
      <path class="st3" d="M56.05,81.44c-2.39,2.39-6.3,2.39-8.69,0s-2.39-6.3,0-8.69,6.3-2.39,8.69,0h0c2.39,2.39,2.41,6.26.02,8.67l-.02.02"/>
    </g>
    <g id="Graphic_32">
      <path class="st1" d="M46.11,44.63c-.57-.57-1.68-2.04-1.73-3.56-.44,1.46-1.64,2.55-3.14,2.85,1.75,0,3.28,1.13,3.8,1.72l.49.49c.16-.2.33-.38.51-.57.16-.16.35-.33.51-.47-.17-.13-.31-.28-.44-.46"/>
    </g>
    <g id="Graphic_29">
      <path class="st1" d="M59.16,40.56c.13,1.86-1.09,3.52-1.72,4.05l-.42.42c.18.16.36.31.55.49.18.18.36.38.53.6l.35-.35c.64-.64,2.43-1.99,4.14-1.72h.47c-1.97-.06-3.61-1.54-3.9-3.49"/>
    </g>
    <g id="Graphic_26">
      <path class="st1" d="M59.1,61.86c.44-1.51,1.68-2.65,3.23-2.92-1.82.09-3.45-1.19-3.98-1.81l-.4-.4c-.13.15-.26.29-.38.42-.18.18-.38.36-.58.53.11.18.24.36.38.53.56.58,1.71,2.09,1.73,3.65"/>
    </g>
    <g id="Graphic_23">
      <path class="st1" d="M46.02,57.17c-.2-.2-.4-.42-.58-.62l-.42.42c-.6.6-2.24,1.82-3.89,1.72,1.7.38,2.96,1.81,3.16,3.54-.15-1.86,1.09-3.56,1.72-4.09l.51-.51c-.17-.15-.34-.3-.5-.46"/>
    </g>
    <g id="Graphic_20">
      <path class="st1" d="M44.52,39.88c0,2.26-1.84,4.11-4.11,4.11s-4.11-1.84-4.11-4.11,1.84-4.11,4.11-4.11h0c2.27.03,4.11,1.85,4.11,4.11"/>
    </g>
    <g id="Graphic_17">
      <path class="st1" d="M67.31,39.97c0,2.28-1.84,4.12-4.12,4.12s-4.12-1.84-4.12-4.12,1.84-4.12,4.12-4.12,4.12,1.84,4.12,4.12h0"/>
    </g>
    <g id="Graphic_14">
      <path class="st1" d="M67.15,63.01c0,2.28-1.84,4.12-4.12,4.12s-4.12-1.84-4.12-4.12,1.84-4.12,4.12-4.12c2.28,0,4.12,1.83,4.12,4.12h0"/>
    </g>
    <g id="Graphic_11">
      <path class="st1" d="M44.36,62.71c0,2.28-1.84,4.12-4.12,4.12s-4.12-1.84-4.12-4.12,1.84-4.12,4.12-4.12h0c2.27,0,4.12,1.84,4.12,4.12h0"/>
    </g>
    <g id="Graphic_8">
      <path class="st2" d="M45.98,45.49c3.14-3.21,8.29-3.25,11.5-.11l.11.11c3.23,3.21,3.23,8.45.02,11.66l-.02.02c-3.14,3.21-8.29,3.25-11.5.11l-.11-.11c-3.23-3.16-3.23-8.45,0-11.68"/>
    </g>
  </g>
</svg>