<?xml version="1.0" encoding="UTF-8"?>
<svg id="Layer_1" xmlns="http://www.w3.org/2000/svg" version="1.1" viewBox="0 0 67.06 67.05">
  <!-- Generator: Adobe Illustrator 30.4.0, SVG Export Plug-In . SVG Version: 2.1.4 Build 226)  -->
  <path d="M67.01,66.87l-17.33-.07c-7.95-.03-14.23-5.92-15.92-13.97-4.96,17.01-17.3,14.05-33.25,13.97l.12-18.25c.05-7.45,6.07-12.91,13.41-15C5.22,31.47-.06,24.8,0,16.07L.1.16c15.91.19,27.54-3.25,33.36,13.86,1.65-7.41,7.22-13,14.73-13.67,6.02-.54,11.93-.15,18.28-.18-.33,15.85,3.67,27.63-13.37,33.39,7.51,1.73,13.3,7.41,13.75,15.11.34,5.98.13,11.7.15,18.2Z"/>
</svg>