<?xml version="1.0" encoding="UTF-8"?>
<svg id="Layer_1" xmlns="http://www.w3.org/2000/svg" version="1.1" viewBox="0 0 450.02 427.24">
  <!-- Generator: Adobe Illustrator 30.4.0, SVG Export Plug-In . SVG Version: 2.1.4 Build 226)  -->
  <defs>
    <style>
      .st0 {
        fill: #231f20;
      }
    </style>
  </defs>
  <path class="st0" d="M214.13,416.7c-13.57,0-26.97-1.39-39.9-4.19-56.71-12.27-104.04-46.33-133.27-95.91C12.2,267.8,3.41,208.3,16.22,149.05l.2-.94.33-.9c17.22-46.49,47.19-85.25,84.39-109.14C140.58,12.76,185.77,4.65,231.84,14.61c46.95,10.15,87.17,36.02,113.26,72.84,27.13,38.29,36.44,85.43,26.22,132.72-8.76,40.5-36.35,78.76-73.81,102.36-35.87,22.6-77.69,29.8-117.76,20.28-34.81-8.27-66.23-32.64-86.2-66.85-19.68-33.73-26.47-73.87-18.63-110.13,11.09-51.27,74.6-101.04,139.87-88.38,33.04,6.41,63.93,27.17,82.64,55.53,14.6,22.13,19.99,46.54,15.19,68.74-11.53,53.29-47.16,82.19-100.81,82.2-3.15,0-6.37-.1-9.64-.3-23.58-1.44-46-16.77-59.97-40.99-13.74-23.83-15.96-51.27-5.79-71.6,11.41-22.82,42.58-38.52,68.07-34.28,22.93,3.81,38.27,22.13,42.08,50.25l-26.76,3.62c-2.2-16.26-8.84-25.42-19.74-27.23-15.16-2.52-34,8.73-39.5,19.72-6.16,12.33-4.24,29.97,5.03,46.04,9.28,16.1,23.93,26.65,38.22,27.52,45.38,2.77,73.1-17.63,82.41-60.65,3.25-15.04-.77-32.15-11.34-48.17-14.57-22.09-39.57-38.91-65.24-43.89-22.5-4.37-47.78,1.34-69.35,15.67-20.29,13.48-34.87,32.88-38.98,51.92-6.43,29.75-.76,62.85,15.56,90.82,16.26,27.87,41.46,47.62,69.12,54.19,32.96,7.83,67.45,1.85,97.13-16.85,31.45-19.81,54.55-51.67,61.81-85.23,8.61-39.8.85-79.36-21.86-111.4-22.18-31.3-56.6-53.34-96.93-62.06-77.94-16.85-151.66,29.22-183.72,114.7-11.08,52.28-3.35,104.51,21.81,147.19,25.36,43.02,66.46,72.58,115.72,83.23,24.4,5.28,50.88,4.72,76.58-1.61,25.63-6.31,50.65-18.39,72.38-34.93,23.81-18.12,43.14-40.81,57.47-67.41,15.45-28.69,24.26-60.64,26.2-94.97l26.96,1.52c-2.16,38.3-12.05,74.05-29.38,106.24-16.16,30.02-37.99,55.62-64.89,76.09-24.64,18.76-53.09,32.47-82.27,39.66-16.16,3.98-32.62,5.97-48.84,5.97Z"/>
</svg>